<?xml version="1.0" encoding="utf-8"?>
<?xml-stylesheet type="text/xsl" href="rss1.xsl"?>
<rss version="2.0" xmlns:atom="http://www.w3.org/2005/Atom" xmlns:content="http://purl.org/rss/1.0/modules/content/" xmlns:dc="http://purl.org/dc/elements/1.1/" xmlns:media="http://search.yahoo.com/mrss/">
<channel>
 <title>Getty</title>
 <link>http://www.gettyimg.com/</link>
 <atom:link href="http://www.gettyimg.com/" rel="self" type="application/rss+xml" />

 
                <item>
                <title><![CDATA[【Albums (lossy)】Dolby Atmos - Sabrina Carpenter: emails i can't send fwd: (Explicit) | M4A (Dolby Atmos) [E-AC3-JOC | 16b/48kHz | 5.1 | 768kbps]]]></title>
                <link><![CDATA[https://sharemania.us/threads/sabrina-carpenter-emails-i-cant-send-fwd-explicit-m4a-dolby-atmos-e-ac3-joc-16b-48khz-5-1-768kbps.232147/]]></link>
                <description><![CDATA[<article>
<blockquote class="messageText SelectQuoteContainer ugc baseHtml">
<div style="text-align: center"><span style="font-family: 'Georgia'"><img src="https://i.imgur.com/d7XSiHW.jpg" class="bbCodeImage LbImage" alt="[​IMG]" data-url="https://i.imgur.com/d7XSiHW.jpg" style=""> </span><br>
<b><span style="font-family: 'Georgia'"><span style="font-size: 18px"><span style="color: #b30059">Sabrina Carpenter: emails i can't send fwd: (2023) [dolby atmos] [Amazon Music Rip]</span></span></span></b><br>
<span style="font-family: 'Georgia'"><span style="color: #ff99cc"><b>Album:</b> emails i can't send fwd: <br>
<b>Artist: </b>Sabrina Carpenter<br>
<b>Quality/Codec:</b> M4A Dolby Atmos E-AC3-JOC 5.1<br>
<b>Year:</b> 2023<br>
</span><br>
<span style="color: #b30059">
<div class="bbCodeBlock bbCodeQuote">
<aside>
<blockquote class="quoteContainer"><div class="quote">and you can aim for my heart, go for blood. but you would still miss me in your bones.</div><div class="quoteExpand">Click to expand...</div></blockquote>
</aside>
</div></span><br>
</span><br>
<b><span style="font-family: 'Georgia'"><span style="color: #ff99cc">Tracklist:</span></span></b><br>
<span style="font-family: 'Georgia'"><span style="color: #ff99cc"><b>01. </b>emails i can't send<br>
<b>02. </b>Vicious<br>
<b>03.</b> Read your Mind<br>
<b>04.</b> Tornado Warnings<br>
<b>05.</b> because i liked a boy<br>
<b>06.</b> Already Over<br>
<b>07.</b> how many things<br>
<b>08.</b> bet u wanna<br>
<b>09.</b> Nonsense<br>
<b>10.</b> Fast Times<br>
<b>11.</b> skinny dipping<br>
<b>12.</b> Bad for Business<br>
<b>13.</b> decode<br>
<b>14.</b> opposite<br>
<b>15. </b>Feather<br>
<b>16.</b> Lonesome<br>
<b>17.</b> things i wish you said<br>
<b>Runtime:</b> 51 minutes<br>
<br>
<div class="ToggleTriggerAnchor bbCodeSpoilerContainer">
<button type="button" class="button bbCodeSpoilerButton ToggleTrigger Tooltip JsOnly" data-target="> .SpoilerTarget"><span>Spoiler: <span class="SpoilerTitle">MediaInfo</span></span></button>
<div class="SpoilerTarget bbCodeSpoilerText">General<br>
Complete name : C:\Users\bradl\Desktop\Sabrina Carpenter - emails i can't send fwd; (2023) [Dolby Atmos] [16B-48kHz]\01. emails i can’t send.m4a<br>
Format : MPEG-4<br>
Format profile : Base Media / Version 2<br>
Codec ID : mp42 (mp42/dby1)<br>
File size : 9.73 MiB<br>
Duration : 1 min 44 s<br>
Overall bit rate mode : Constant<br>
Overall bit rate : 781 kb/s<br>
Album : emails i can’t send fwd: [dolby atmos]<br>
Album/Performer : Sabrina Carpenter<br>
Part/Position : 1<br>
Part/Total : 1<br>
Track name : emails i can’t send<br>
Track name/Position : 1<br>
Track name/Total : 17<br>
Performer : Sabrina Carpenter<br>
Composer : JP Saxe, Julia Michaels &amp; Sabrina Carpenter<br>
Genre : Pop/General<br>
ContentType : Music<br>
Recorded date : 2022-07-15 04:00:00 UTC<br>
Encoded date : 2023-11-13 08:41:32 UTC<br>
Tagged date : 2023-11-13 08:41:32 UTC<br>
ISRC : USUM72210693<br>
Copyright : ℗© 2023 Island Records, a division of UMG Recordings, Inc.<br>
Cover : Yes<br>
Comment : <a href="https://music.amazon.com/albums/B0BY1JP6VM?trackAsin=B0BY1FQH5G" target="_blank" class="externalLink" rel="nofollow">https://music.amazon.com/albums/B0BY1JP6VM?trackAsin=B0BY1FQH5G</a><br>
Rating : Explicit<br>
LABEL : Island Records<br>
Audio<br>
ID : 1<br>
Format : E-AC-3 JOC<br>
Format/Info : Enhanced AC-3 with Joint Object Coding<br>
Commercial name : Dolby Digital Plus with Dolby Atmos<br>
Codec ID : ec-3<br>
Duration : 1 min 44 s<br>
Bit rate mode : Constant<br>
Bit rate : 768 kb/s<br>
Channel(s) : 6 channels<br>
Channel layout : L R C LFE Ls Rs<br>
Sampling rate : 48.0 kHz<br>
Frame rate : 31.250 FPS (1536 SPF)<br>
Compression mode : Lossy<br>
Stream size : 9.56 MiB (98%)<br>
Service kind : Complete Main<br>
Encoded date : 2023-11-13 08:41:32 UTC<br>
Tagged date : 2023-11-13 08:41:32 UTC<br>
Complexity index : 16<br>
Number of dynamic objects : 15<br>
Bed channel count : 1 channel<br>
Bed channel configuration : LFE<br>
General<br>
Complete name : C:\Users\bradl\Desktop\Sabrina Carpenter - emails i can't send fwd; (2023) [Dolby Atmos] [16B-48kHz]\02. Vicious.m4a<br>
Format : MPEG-4<br>
Format profile : Base Media / Version 2<br>
Codec ID : mp42 (mp42/dby1)<br>
File size : 13.9 MiB<br>
Duration : 2 min 29 s<br>
Overall bit rate mode : Constant<br>
Overall bit rate : 777 kb/s<br>
Album : emails i can’t send fwd: [dolby atmos]<br>
Album/Performer : Sabrina Carpenter<br>
Part/Position : 1<br>
Part/Total : 1<br>
Track name : Vicious<br>
Track name/Position : 2<br>
Track name/Total : 17<br>
Performer : Sabrina Carpenter<br>
Composer : Amy Allen, Jason Evigan &amp; Sabrina Carpenter<br>
Genre : Pop/General<br>
ContentType : Music<br>
Recorded date : 2022-07-01 04:00:00 UTC<br>
Encoded date : 2023-11-13 08:41:57 UTC<br>
Tagged date : 2023-11-13 08:41:57 UTC<br>
ISRC : USUM72210690<br>
Copyright : ℗© 2023 Island Records, a division of UMG Recordings, Inc.<br>
Cover : Yes<br>
Comment : <a href="https://music.amazon.com/albums/B0BY1JP6VM?trackAsin=B0BY13WCHX" target="_blank" class="externalLink" rel="nofollow">https://music.amazon.com/albums/B0BY1JP6VM?trackAsin=B0BY13WCHX</a><br>
Rating : Explicit<br>
LABEL : Island Records<br>
Audio<br>
ID : 1<br>
Format : E-AC-3 JOC<br>
Format/Info : Enhanced AC-3 with Joint Object Coding<br>
Commercial name : Dolby Digital Plus with Dolby Atmos<br>
Codec ID : ec-3<br>
Duration : 2 min 29 s<br>
Bit rate mode : Constant<br>
Bit rate : 768 kb/s<br>
Channel(s) : 6 channels<br>
Channel layout : L R C LFE Ls Rs<br>
Sampling rate : 48.0 kHz<br>
Frame rate : 31.250 FPS (1536 SPF)<br>
Compression mode : Lossy<br>
Stream size : 13.7 MiB (99%)<br>
Service kind : Complete Main<br>
Encoded date : 2023-11-13 08:41:57 UTC<br>
Tagged date : 2023-11-13 08:41:57 UTC<br>
Complexity index : 16<br>
Number of dynamic objects : 15<br>
Bed channel count : 1 channel<br>
Bed channel configuration : LFE<br>
General<br>
Complete name : C:\Users\bradl\Desktop\Sabrina Carpenter - emails i can't send fwd; (2023) [Dolby Atmos] [16B-48kHz]\03. Read your Mind.m4a<br>
Format : MPEG-4<br>
Format profile : Base Media / Version 2<br>
Codec ID : mp42 (mp42/dby1)<br>
File size : 19.2 MiB<br>
Duration : 3 min 27 s<br>
Overall bit rate mode : Constant<br>
Overall bit rate : 775 kb/s<br>
Album : emails i can’t send fwd: [dolby atmos]<br>
Album/Performer : Sabrina Carpenter<br>
Part/Position : 1<br>
Part/Total : 1<br>
Track name : Read your Mind<br>
Track name/Position : 3<br>
Track name/Total : 17<br>
Performer : Sabrina Carpenter<br>
Composer : Leroy Clampitt, Sabrina Carpenter &amp; Skyler Stonestreet<br>
Genre : Pop/General<br>
ContentType : Music<br>
Recorded date : 2023-03-23 04:00:00 UTC<br>
Encoded date : 2023-11-13 08:42:20 UTC<br>
Tagged date : 2023-11-13 08:42:20 UTC<br>
ISRC : USUM72210694<br>
Copyright : ℗© 2023 Island Records, a division of UMG Recordings, Inc.<br>
Cover : Yes<br>
Comment : <a href="https://music.amazon.com/albums/B0BY1JP6VM?trackAsin=B0BY15YK6X" target="_blank" class="externalLink" rel="nofollow">https://music.amazon.com/albums/B0BY1JP6VM?trackAsin=B0BY15YK6X</a><br>
Rating : None<br>
LABEL : Island Records<br>
Audio<br>
ID : 1<br>
Format : E-AC-3 JOC<br>
Format/Info : Enhanced AC-3 with Joint Object Coding<br>
Commercial name : Dolby Digital Plus with Dolby Atmos<br>
Codec ID : ec-3<br>
Duration : 3 min 27 s<br>
Bit rate mode : Constant<br>
Bit rate : 768 kb/s<br>
Channel(s) : 6 channels<br>
Channel layout : L R C LFE Ls Rs<br>
Sampling rate : 48.0 kHz<br>
Frame rate : 31.250 FPS (1536 SPF)<br>
Compression mode : Lossy<br>
Stream size : 19.0 MiB (99%)<br>
Service kind : Complete Main<br>
Encoded date : 2023-11-13 08:42:20 UTC<br>
Tagged date : 2023-11-13 08:42:20 UTC<br>
Complexity index : 16<br>
Number of dynamic objects : 15<br>
Bed channel count : 1 channel<br>
Bed channel configuration : LFE<br>
General<br>
Complete name : C:\Users\bradl\Desktop\Sabrina Carpenter - emails i can't send fwd; (2023) [Dolby Atmos] [16B-48kHz]\04. Tornado Warnings.m4a<br>
Format : MPEG-4<br>
Format profile : Base Media / Version 2<br>
Codec ID : mp42 (mp42/dby1)<br>
File size : 18.9 MiB<br>
Duration : 3 min 24 s<br>
Overall bit rate mode : Constant<br>
Overall bit rate : 775 kb/s<br>
Album : emails i can’t send fwd: [dolby atmos]<br>
Album/Performer : Sabrina Carpenter<br>
Part/Position : 1<br>
Part/Total : 1<br>
Track name : Tornado Warnings<br>
Track name/Position : 4<br>
Track name/Total : 17<br>
Performer : Sabrina Carpenter<br>
Composer : JP Saxe, Jorgen Odegard, Julia Michaels &amp; Sabrina Carpenter<br>
Genre : Pop/General<br>
ContentType : Music<br>
Recorded date : 2023-03-23 04:00:00 UTC<br>
Encoded date : 2023-11-13 08:42:51 UTC<br>
Tagged date : 2023-11-13 08:42:51 UTC<br>
ISRC : USUM72210696<br>
Copyright : ℗© 2023 Island Records, a division of UMG Recordings, Inc.<br>
Cover : Yes<br>
Lyrics : ... / We were never in the park / Talkin' on a see-saw teetering with our feelings in the dark / Ignoring tornado warnings / He didn't hold me in his arms / We didn't stumble over the pages of our relationship arc / Ignoring tornado warnings / Don't understand how quickly we get / Right back in our rhythm without missing a step / And logically the last thing I should have on my mind / But I want you there sometimes / I guess maybe that's why I'm lying to my therapist / I keep saying things like "I never saw him and we never kissed" / Now I think somehow in my mind / If I could convince him if he doesn't see it / Then maybe it doesn't exist / I think he's onto me / Every time I say I'm over that son of a bitch / I'm lying to my therapist / I deserve an hour in a week / To focus on my thoughts / Not so obsessed with yours / I can't hear myself speak / I deserve my own consideration / Sometimes I wish I kept / Some of my feelings in the basement / So I'd still have some left / Don't understand how quickly we get / Right back in our rhythm without missing a step / And logically the last thing I should have on my mind / But I want you there sometimes / I guess maybe that's why I'm lying to my therapist / I keep saying things like "I never saw him and we never kissed" / Now I think somehow in my mind / If I could convince him if he doesn't see it / Then maybe it doesn't exist / I think he's onto me / Every time I say I'm over that son of a bitch / I'm lying to my therapist / I drive you home, you drive me crazy / But that's not gonna stop me / I call you out, you call me "baby" / But that's not gonna stop me / From lying to my therapist / I keep saying things like "I never saw him and we never kissed" / Now I think somehow in my mind / If I could convince him if he doesn't see it / Then maybe it doesn't exist / I think he's onto me / Every time I say I'm over that son of a bitch / I'm lying to my therapist<br>
Comment : <a href="https://music.amazon.com/albums/B0BY1JP6VM?trackAsin=B0BXZV2N9B" target="_blank" class="externalLink" rel="nofollow">https://music.amazon.com/albums/B0BY1JP6VM?trackAsin=B0BXZV2N9B</a><br>
Rating : Explicit<br>
LABEL : Island Records<br>
Audio<br>
ID : 1<br>
Format : E-AC-3 JOC<br>
Format/Info : Enhanced AC-3 with Joint Object Coding<br>
Commercial name : Dolby Digital Plus with Dolby Atmos<br>
Codec ID : ec-3<br>
Duration : 3 min 24 s<br>
Bit rate mode : Constant<br>
Bit rate : 768 kb/s<br>
Channel(s) : 6 channels<br>
Channel layout : L R C LFE Ls Rs<br>
Sampling rate : 48.0 kHz<br>
Frame rate : 31.250 FPS (1536 SPF)<br>
Compression mode : Lossy<br>
Stream size : 18.7 MiB (99%)<br>
Service kind : Complete Main<br>
Encoded date : 2023-11-13 08:42:51 UTC<br>
Tagged date : 2023-11-13 08:42:51 UTC<br>
Complexity index : 16<br>
Number of dynamic objects : 15<br>
Bed channel count : 1 channel<br>
Bed channel configuration : LFE<br>
General<br>
Complete name : C:\Users\bradl\Desktop\Sabrina Carpenter - emails i can't send fwd; (2023) [Dolby Atmos] [16B-48kHz]\05. because i liked a boy.m4a<br>
Format : MPEG-4<br>
Format profile : Base Media / Version 2<br>
Codec ID : mp42 (mp42/dby1)<br>
File size : 18.2 MiB<br>
Duration : 3 min 16 s<br>
Overall bit rate mode : Constant<br>
Overall bit rate : 775 kb/s<br>
Album : emails i can’t send fwd: [dolby atmos]<br>
Album/Performer : Sabrina Carpenter<br>
Part/Position : 1<br>
Part/Total : 1<br>
Track name : because i liked a boy<br>
Track name/Position : 5<br>
Track name/Total : 17<br>
Performer : Sabrina Carpenter<br>
Composer : JP Saxe, John Ryan, Julia Michaels &amp; Sabrina Carpenter<br>
Genre : Pop/General<br>
ContentType : Music<br>
Recorded date : 2022-07-15 04:00:00 UTC<br>
Encoded date : 2023-11-13 08:43:26 UTC<br>
Tagged date : 2023-11-13 08:43:26 UTC<br>
ISRC : USUM72210695<br>
Copyright : ℗© 2023 Island Records, a division of UMG Recordings, Inc.<br>
Cover : Yes<br>
Comment : <a href="https://music.amazon.com/albums/B0BY1JP6VM?trackAsin=B0BXZTWQ74" target="_blank" class="externalLink" rel="nofollow">https://music.amazon.com/albums/B0BY1JP6VM?trackAsin=B0BXZTWQ74</a><br>
Rating : Explicit<br>
LABEL : Island Records<br>
Audio<br>
ID : 1<br>
Format : E-AC-3 JOC<br>
Format/Info : Enhanced AC-3 with Joint Object Coding<br>
Commercial name : Dolby Digital Plus with Dolby Atmos<br>
Codec ID : ec-3<br>
Duration : 3 min 16 s<br>
Bit rate mode : Constant<br>
Bit rate : 768 kb/s<br>
Channel(s) : 6 channels<br>
Channel layout : L R C LFE Ls Rs<br>
Sampling rate : 48.0 kHz<br>
Frame rate : 31.250 FPS (1536 SPF)<br>
Compression mode : Lossy<br>
Stream size : 18.0 MiB (99%)<br>
Service kind : Complete Main<br>
Encoded date : 2023-11-13 08:43:26 UTC<br>
Tagged date : 2023-11-13 08:43:26 UTC<br>
Complexity index : 16<br>
Number of dynamic objects : 15<br>
Bed channel count : 1 channel<br>
Bed channel configuration : LFE<br>
General<br>
Complete name : C:\Users\bradl\Desktop\Sabrina Carpenter - emails i can't send fwd; (2023) [Dolby Atmos] [16B-48kHz]\06. Already Over.m4a<br>
Format : MPEG-4<br>
Format profile : Base Media / Version 2<br>
Codec ID : mp42 (mp42/dby1)<br>
File size : 15.8 MiB<br>
Duration : 2 min 50 s<br>
Overall bit rate mode : Constant<br>
Overall bit rate : 776 kb/s<br>
Album : emails i can’t send fwd: [dolby atmos]<br>
Album/Performer : Sabrina Carpenter<br>
Part/Position : 1<br>
Part/Total : 1<br>
Track name : Already Over<br>
Track name/Position : 6<br>
Track name/Total : 17<br>
Performer : Sabrina Carpenter<br>
Composer : JP Saxe, John Ryan, Julia Michaels &amp; Sabrina Carpenter<br>
Genre : Pop/General<br>
ContentType : Music<br>
Recorded date : 2023-03-23 04:00:00 UTC<br>
Encoded date : 2023-11-13 08:43:52 UTC<br>
Tagged date : 2023-11-13 08:43:52 UTC<br>
ISRC : USUM72210070<br>
Copyright : ℗© 2023 Island Records, a division of UMG Recordings, Inc.<br>
Cover : Yes<br>
Comment : <a href="https://music.amazon.com/albums/B0BY1JP6VM?trackAsin=B0BY13P5BR" target="_blank" class="externalLink" rel="nofollow">https://music.amazon.com/albums/B0BY1JP6VM?trackAsin=B0BY13P5BR</a><br>
Rating : None<br>
LABEL : Island Records<br>
Audio<br>
ID : 1<br>
Format : E-AC-3 JOC<br>
Format/Info : Enhanced AC-3 with Joint Object Coding<br>
Commercial name : Dolby Digital Plus with Dolby Atmos<br>
Codec ID : ec-3<br>
Duration : 2 min 50 s<br>
Bit rate mode : Constant<br>
Bit rate : 768 kb/s<br>
Channel(s) : 6 channels<br>
Channel layout : L R C LFE Ls Rs<br>
Sampling rate : 48.0 kHz<br>
Frame rate : 31.250 FPS (1536 SPF)<br>
Compression mode : Lossy<br>
Stream size : 15.6 MiB (99%)<br>
Service kind : Complete Main<br>
Encoded date : 2023-11-13 08:43:52 UTC<br>
Tagged date : 2023-11-13 08:43:52 UTC<br>
Complexity index : 16<br>
Number of dynamic objects : 15<br>
Bed channel count : 1 channel<br>
Bed channel configuration : LFE<br>
General<br>
Complete name : C:\Users\bradl\Desktop\Sabrina Carpenter - emails i can't send fwd; (2023) [Dolby Atmos] [16B-48kHz]\07. how many things.m4a<br>
Format : MPEG-4<br>
Format profile : Base Media / Version 2<br>
Codec ID : mp42 (mp42/dby1)<br>
File size : 22.5 MiB<br>
Duration : 4 min 3 s<br>
Overall bit rate mode : Constant<br>
Overall bit rate : 774 kb/s<br>
Album : emails i can’t send fwd: [dolby atmos]<br>
Album/Performer : Sabrina Carpenter<br>
Part/Position : 1<br>
Part/Total : 1<br>
Track name : how many things<br>
Track name/Position : 7<br>
Track name/Total : 17<br>
Performer : Sabrina Carpenter<br>
Composer : JP Saxe, Ryan Marrone &amp; Sabrina Carpenter<br>
Genre : Pop/General<br>
ContentType : Music<br>
Recorded date : 2023-03-23 04:00:00 UTC<br>
Encoded date : 2023-11-13 08:44:13 UTC<br>
Tagged date : 2023-11-13 08:44:13 UTC<br>
ISRC : USUM72210705<br>
Copyright : ℗© 2023 Island Records, a division of UMG Recordings, Inc.<br>
Cover : Yes<br>
Comment : <a href="https://music.amazon.com/albums/B0BY1JP6VM?trackAsin=B0BY1J29JB" target="_blank" class="externalLink" rel="nofollow">https://music.amazon.com/albums/B0BY1JP6VM?trackAsin=B0BY1J29JB</a><br>
Rating : Explicit<br>
LABEL : Island Records<br>
Audio<br>
ID : 1<br>
Format : E-AC-3 JOC<br>
Format/Info : Enhanced AC-3 with Joint Object Coding<br>
Commercial name : Dolby Digital Plus with Dolby Atmos<br>
Codec ID : ec-3<br>
Duration : 4 min 3 s<br>
Bit rate mode : Constant<br>
Bit rate : 768 kb/s<br>
Channel(s) : 6 channels<br>
Channel layout : L R C LFE Ls Rs<br>
Sampling rate : 48.0 kHz<br>
Frame rate : 31.250 FPS (1536 SPF)<br>
Compression mode : Lossy<br>
Stream size : 22.3 MiB (99%)<br>
Service kind : Complete Main<br>
Encoded date : 2023-11-13 08:44:13 UTC<br>
Tagged date : 2023-11-13 08:44:13 UTC<br>
Complexity index : 16<br>
Number of dynamic objects : 15<br>
Bed channel count : 1 channel<br>
Bed channel configuration : LFE<br>
General<br>
Complete name : C:\Users\bradl\Desktop\Sabrina Carpenter - emails i can't send fwd; (2023) [Dolby Atmos] [16B-48kHz]\08. bet u wanna.m4a<br>
Format : MPEG-4<br>
Format profile : Base Media / Version 2<br>
Codec ID : mp42 (mp42/dby1)<br>
File size : 17.7 MiB<br>
Duration : 3 min 11 s<br>
Overall bit rate mode : Constant<br>
Overall bit rate : 776 kb/s<br>
Album : emails i can’t send fwd: [dolby atmos]<br>
Album/Performer : Sabrina Carpenter<br>
Part/Position : 1<br>
Part/Total : 1<br>
Track name : bet u wanna<br>
Track name/Position : 8<br>
Track name/Total : 17<br>
Performer : Sabrina Carpenter<br>
Composer : Julian Bunetta, Leroy Clampitt, Sabrina Carpenter &amp; Steph Jones<br>
Genre : Pop/General<br>
ContentType : Music<br>
Recorded date : 2023-03-23 04:00:00 UTC<br>
Encoded date : 2023-11-13 08:44:42 UTC<br>
Tagged date : 2023-11-13 08:44:42 UTC<br>
ISRC : USUM72210707<br>
Copyright : ℗© 2023 Island Records, a division of UMG Recordings, Inc.<br>
Cover : Yes<br>
Comment : <a href="https://music.amazon.com/albums/B0BY1JP6VM?trackAsin=B0BXZSBKSP" target="_blank" class="externalLink" rel="nofollow">https://music.amazon.com/albums/B0BY1JP6VM?trackAsin=B0BXZSBKSP</a><br>
Rating : None<br>
LABEL : Island Records<br>
Audio<br>
ID : 1<br>
Format : E-AC-3 JOC<br>
Format/Info : Enhanced AC-3 with Joint Object Coding<br>
Commercial name : Dolby Digital Plus with Dolby Atmos<br>
Codec ID : ec-3<br>
Duration : 3 min 11 s<br>
Bit rate mode : Constant<br>
Bit rate : 768 kb/s<br>
Channel(s) : 6 channels<br>
Channel layout : L R C LFE Ls Rs<br>
Sampling rate : 48.0 kHz<br>
Frame rate : 31.250 FPS (1536 SPF)<br>
Compression mode : Lossy<br>
Stream size : 17.5 MiB (99%)<br>
Service kind : Complete Main<br>
Encoded date : 2023-11-13 08:44:42 UTC<br>
Tagged date : 2023-11-13 08:44:42 UTC<br>
Complexity index : 16<br>
Number of dynamic objects : 15<br>
Bed channel count : 1 channel<br>
Bed channel configuration : LFE<br>
General<br>
Complete name : C:\Users\bradl\Desktop\Sabrina Carpenter - emails i can't send fwd; (2023) [Dolby Atmos] [16B-48kHz]\09. Nonsense.m4a<br>
Format : MPEG-4<br>
Format profile : Base Media / Version 2<br>
Codec ID : mp42 (mp42/dby1)<br>
File size : 15.2 MiB<br>
Duration : 2 min 43 s<br>
Overall bit rate mode : Constant<br>
Overall bit rate : 777 kb/s<br>
Album : emails i can’t send fwd: [dolby atmos]<br>
Album/Performer : Sabrina Carpenter<br>
Part/Position : 1<br>
Part/Total : 1<br>
Track name : Nonsense<br>
Track name/Position : 9<br>
Track name/Total : 17<br>
Performer : Sabrina Carpenter<br>
Composer : Julian Bunetta, Sabrina Carpenter &amp; Steph Jones<br>
Genre : Pop/General<br>
ContentType : Music<br>
Recorded date : 2022-07-15 04:00:00 UTC<br>
Encoded date : 2023-11-13 08:45:08 UTC<br>
Tagged date : 2023-11-13 08:45:08 UTC<br>
ISRC : USUM72210708<br>
Copyright : ℗© 2023 Island Records, a division of UMG Recordings, Inc.<br>
Cover : Yes<br>
Comment : <a href="https://music.amazon.com/albums/B0BY1JP6VM?trackAsin=B0BY19MHLH" target="_blank" class="externalLink" rel="nofollow">https://music.amazon.com/albums/B0BY1JP6VM?trackAsin=B0BY19MHLH</a><br>
Rating : None<br>
LABEL : Island Records<br>
Audio<br>
ID : 1<br>
Format : E-AC-3 JOC<br>
Format/Info : Enhanced AC-3 with Joint Object Coding<br>
Commercial name : Dolby Digital Plus with Dolby Atmos<br>
Codec ID : ec-3<br>
Duration : 2 min 43 s<br>
Bit rate mode : Constant<br>
Bit rate : 768 kb/s<br>
Channel(s) : 6 channels<br>
Channel layout : L R C LFE Ls Rs<br>
Sampling rate : 48.0 kHz<br>
Frame rate : 31.250 FPS (1536 SPF)<br>
Compression mode : Lossy<br>
Stream size : 15.0 MiB (99%)<br>
Service kind : Complete Main<br>
Encoded date : 2023-11-13 08:45:08 UTC<br>
Tagged date : 2023-11-13 08:45:08 UTC<br>
Complexity index : 16<br>
Number of dynamic objects : 15<br>
Bed channel count : 1 channel<br>
Bed channel configuration : LFE<br>
General<br>
Complete name : C:\Users\bradl\Desktop\Sabrina Carpenter - emails i can't send fwd; (2023) [Dolby Atmos] [16B-48kHz]\10. Fast Times.m4a<br>
Format : MPEG-4<br>
Format profile : Base Media / Version 2<br>
Codec ID : mp42 (mp42/dby1)<br>
File size : 16.2 MiB<br>
Duration : 2 min 54 s<br>
Overall bit rate mode : Constant<br>
Overall bit rate : 776 kb/s<br>
Album : emails i can’t send fwd: [dolby atmos]<br>
Album/Performer : Sabrina Carpenter<br>
Part/Position : 1<br>
Part/Total : 1<br>
Track name : Fast Times<br>
Track name/Position : 10<br>
Track name/Total : 17<br>
Performer : Sabrina Carpenter<br>
Composer : JP Saxe, John Ryan, Julia Michaels &amp; Sabrina Carpenter<br>
Genre : Pop/General<br>
ContentType : Music<br>
Recorded date : 2022-02-18 05:00:00 UTC<br>
Encoded date : 2023-11-13 08:45:33 UTC<br>
Tagged date : 2023-11-13 08:45:33 UTC<br>
ISRC : USUM72200377<br>
Copyright : ℗© 2023 Island Records, a division of UMG Recordings, Inc.<br>
Cover : Yes<br>
Comment : <a href="https://music.amazon.com/albums/B0BY1JP6VM?trackAsin=B0BY13WCJ1" target="_blank" class="externalLink" rel="nofollow">https://music.amazon.com/albums/B0BY1JP6VM?trackAsin=B0BY13WCJ1</a><br>
Rating : Explicit<br>
LABEL : Island Records<br>
Audio<br>
ID : 1<br>
Format : E-AC-3 JOC<br>
Format/Info : Enhanced AC-3 with Joint Object Coding<br>
Commercial name : Dolby Digital Plus with Dolby Atmos<br>
Codec ID : ec-3<br>
Duration : 2 min 54 s<br>
Bit rate mode : Constant<br>
Bit rate : 768 kb/s<br>
Channel(s) : 6 channels<br>
Channel layout : L R C LFE Ls Rs<br>
Sampling rate : 48.0 kHz<br>
Frame rate : 31.250 FPS (1536 SPF)<br>
Compression mode : Lossy<br>
Stream size : 16.0 MiB (99%)<br>
Service kind : Complete Main<br>
Encoded date : 2023-11-13 08:45:33 UTC<br>
Tagged date : 2023-11-13 08:45:33 UTC<br>
Complexity index : 16<br>
Number of dynamic objects : 15<br>
Bed channel count : 1 channel<br>
Bed channel configuration : LFE<br>
General<br>
Complete name : C:\Users\bradl\Desktop\Sabrina Carpenter - emails i can't send fwd; (2023) [Dolby Atmos] [16B-48kHz]\11. skinny dipping.m4a<br>
Format : MPEG-4<br>
Format profile : Base Media / Version 2<br>
Codec ID : mp42 (mp42/dby1)<br>
File size : 16.4 MiB<br>
Duration : 2 min 57 s<br>
Overall bit rate mode : Constant<br>
Overall bit rate : 776 kb/s<br>
Album : emails i can’t send fwd: [dolby atmos]<br>
Album/Performer : Sabrina Carpenter<br>
Part/Position : 1<br>
Part/Total : 1<br>
Track name : skinny dipping<br>
Track name/Position : 11<br>
Track name/Total : 17<br>
Performer : Sabrina Carpenter<br>
Composer : JP Saxe, Julia Michaels, Leroy Clampitt &amp; Sabrina Carpenter<br>
Genre : Pop/General<br>
ContentType : Music<br>
Recorded date : 2021-09-09 04:00:00 UTC<br>
Encoded date : 2023-11-13 08:45:59 UTC<br>
Tagged date : 2023-11-13 08:45:59 UTC<br>
ISRC : USUM72114679<br>
Copyright : ℗© 2023 Island Records, a division of UMG Recordings, Inc.<br>
Cover : Yes<br>
Comment : <a href="https://music.amazon.com/albums/B0BY1JP6VM?trackAsin=B0BY1C1H1H" target="_blank" class="externalLink" rel="nofollow">https://music.amazon.com/albums/B0BY1JP6VM?trackAsin=B0BY1C1H1H</a><br>
Rating : None<br>
LABEL : Island Records<br>
Audio<br>
ID : 1<br>
Format : E-AC-3 JOC<br>
Format/Info : Enhanced AC-3 with Joint Object Coding<br>
Commercial name : Dolby Digital Plus with Dolby Atmos<br>
Codec ID : ec-3<br>
Duration : 2 min 57 s<br>
Bit rate mode : Constant<br>
Bit rate : 768 kb/s<br>
Channel(s) : 6 channels<br>
Channel layout : L R C LFE Ls Rs<br>
Sampling rate : 48.0 kHz<br>
Frame rate : 31.250 FPS (1536 SPF)<br>
Compression mode : Lossy<br>
Stream size : 16.3 MiB (99%)<br>
Service kind : Complete Main<br>
Encoded date : 2023-11-13 08:45:59 UTC<br>
Tagged date : 2023-11-13 08:45:59 UTC<br>
Complexity index : 16<br>
Number of dynamic objects : 15<br>
Bed channel count : 1 channel<br>
Bed channel configuration : LFE<br>
General<br>
Complete name : C:\Users\bradl\Desktop\Sabrina Carpenter - emails i can't send fwd; (2023) [Dolby Atmos] [16B-48kHz]\12. Bad for Business.m4a<br>
Format : MPEG-4<br>
Format profile : Base Media / Version 2<br>
Codec ID : mp42 (mp42/dby1)<br>
File size : 17.4 MiB<br>
Duration : 3 min 8 s<br>
Overall bit rate mode : Constant<br>
Overall bit rate : 776 kb/s<br>
Album : emails i can’t send fwd: [dolby atmos]<br>
Album/Performer : Sabrina Carpenter<br>
Part/Position : 1<br>
Part/Total : 1<br>
Track name : Bad for Business<br>
Track name/Position : 12<br>
Track name/Total : 17<br>
Performer : Sabrina Carpenter<br>
Composer : Leroy Clampitt, Sabrina Carpenter &amp; Steph Jones<br>
Genre : Pop/General<br>
ContentType : Music<br>
Recorded date : 2023-03-23 04:00:00 UTC<br>
Encoded date : 2023-11-13 08:46:20 UTC<br>
Tagged date : 2023-11-13 08:46:20 UTC<br>
ISRC : USUM72210712<br>
Copyright : ℗© 2023 Island Records, a division of UMG Recordings, Inc.<br>
Cover : Yes<br>
Comment : <a href="https://music.amazon.com/albums/B0BY1JP6VM?trackAsin=B0BY14X1YF" target="_blank" class="externalLink" rel="nofollow">https://music.amazon.com/albums/B0BY1JP6VM?trackAsin=B0BY14X1YF</a><br>
Rating : None<br>
LABEL : Island Records<br>
Audio<br>
ID : 1<br>
Format : E-AC-3 JOC<br>
Format/Info : Enhanced AC-3 with Joint Object Coding<br>
Commercial name : Dolby Digital Plus with Dolby Atmos<br>
Codec ID : ec-3<br>
Duration : 3 min 8 s<br>
Bit rate mode : Constant<br>
Bit rate : 768 kb/s<br>
Channel(s) : 6 channels<br>
Channel layout : L R C LFE Ls Rs<br>
Sampling rate : 48.0 kHz<br>
Frame rate : 31.250 FPS (1536 SPF)<br>
Compression mode : Lossy<br>
Stream size : 17.2 MiB (99%)<br>
Service kind : Complete Main<br>
Encoded date : 2023-11-13 08:46:20 UTC<br>
Tagged date : 2023-11-13 08:46:20 UTC<br>
Complexity index : 16<br>
Number of dynamic objects : 15<br>
Bed channel count : 1 channel<br>
Bed channel configuration : LFE<br>
General<br>
Complete name : C:\Users\bradl\Desktop\Sabrina Carpenter - emails i can't send fwd; (2023) [Dolby Atmos] [16B-48kHz]\13. decode.m4a<br>
Format : MPEG-4<br>
Format profile : Base Media / Version 2<br>
Codec ID : mp42 (mp42/dby1)<br>
File size : 17.4 MiB<br>
Duration : 3 min 8 s<br>
Overall bit rate mode : Constant<br>
Overall bit rate : 776 kb/s<br>
Album : emails i can’t send fwd: [dolby atmos]<br>
Album/Performer : Sabrina Carpenter<br>
Part/Position : 1<br>
Part/Total : 1<br>
Track name : decode<br>
Track name/Position : 13<br>
Track name/Total : 17<br>
Performer : Sabrina Carpenter<br>
Composer : JP Saxe, John Ryan, Julia Michaels &amp; Sabrina Carpenter<br>
Genre : Pop/General<br>
ContentType : Music<br>
Recorded date : 2023-03-23 04:00:00 UTC<br>
Encoded date : 2023-11-13 08:47:05 UTC<br>
Tagged date : 2023-11-13 08:47:05 UTC<br>
ISRC : USUM72210713<br>
Copyright : ℗© 2023 Island Records, a division of UMG Recordings, Inc.<br>
Cover : Yes<br>
Comment : <a href="https://music.amazon.com/albums/B0BY1JP6VM?trackAsin=B0BY18RR9B" target="_blank" class="externalLink" rel="nofollow">https://music.amazon.com/albums/B0BY1JP6VM?trackAsin=B0BY18RR9B</a><br>
Rating : None<br>
LABEL : Island Records<br>
Audio<br>
ID : 1<br>
Format : E-AC-3 JOC<br>
Format/Info : Enhanced AC-3 with Joint Object Coding<br>
Commercial name : Dolby Digital Plus with Dolby Atmos<br>
Codec ID : ec-3<br>
Duration : 3 min 8 s<br>
Bit rate mode : Constant<br>
Bit rate : 768 kb/s<br>
Channel(s) : 6 channels<br>
Channel layout : L R C LFE Ls Rs<br>
Sampling rate : 48.0 kHz<br>
Frame rate : 31.250 FPS (1536 SPF)<br>
Compression mode : Lossy<br>
Stream size : 17.2 MiB (99%)<br>
Service kind : Complete Main<br>
Encoded date : 2023-11-13 08:47:05 UTC<br>
Tagged date : 2023-11-13 08:47:05 UTC<br>
Complexity index : 16<br>
Number of dynamic objects : 15<br>
Bed channel count : 1 channel<br>
Bed channel configuration : LFE<br>
General<br>
Complete name : C:\Users\bradl\Desktop\Sabrina Carpenter - emails i can't send fwd; (2023) [Dolby Atmos] [16B-48kHz]\14. opposite.m4a<br>
Format : MPEG-4<br>
Format profile : Base Media / Version 2<br>
Codec ID : mp42 (mp42/dby1)<br>
File size : 15.6 MiB<br>
Duration : 2 min 48 s<br>
Overall bit rate mode : Constant<br>
Overall bit rate : 777 kb/s<br>
Album : emails i can’t send fwd: [dolby atmos]<br>
Album/Performer : Sabrina Carpenter<br>
Part/Position : 1<br>
Part/Total : 1<br>
Track name : opposite<br>
Track name/Position : 14<br>
Track name/Total : 17<br>
Performer : Sabrina Carpenter<br>
Composer : Amy Allen, Peter Rycroft &amp; Sabrina Carpenter<br>
Genre : Pop/General<br>
ContentType : Music<br>
Recorded date : 2023-03-17 04:00:00 UTC<br>
Encoded date : 2023-11-13 08:47:27 UTC<br>
Tagged date : 2023-11-13 08:47:27 UTC<br>
ISRC : USUM72302254<br>
Copyright : ℗© 2023 Island Records, a division of UMG Recordings, Inc.<br>
Cover : Yes<br>
Lyrics : ... / Oh, so you do have a type, and it's not me / Oh, so you can reply, just to not me / If you wanted brown eyes, I could've got contacts / So y'all are in Paris now, guess it's public / Face like that other girl you're in love with / You knew I would see that / You knew I would notice / She looks nothing like me / Can't really tell, should I be / Tryna take it as a compliment / It's kinda feelin' like the opposite / She looks nothing like me / So why do you look so happy / Now I think I get the 'cause of it / You were holdin' out to find the opposite / And I know now / Even if I try to change / That somehow / You'd end up with her anyway / Oh, I know now / Even if I try to change / That somehow / You'd end up with her anyway / Does she say nothin', so you feel good / Does she step out the spotlight, so you bathe in it / Does she get up on top of you, more than I would / Does she just love the picture 'cause you're paintin' it? (Mhm) / I care but I don't, just wonderin' when you (When you) / Said I'm beautiful, was I bein' lied to / She looks nothing like me / Can't really tell, should I be / Tryna take it as a compliment / It's kinda feelin' like the opposite / She looks nothing like me / So why do you look so happy / Now I think I get the cause of it / You were holdin' out to find the opposite / And I know now / Even if I try to change / That somehow / You'd end up with her anyway (Anyway) / Oh, I know now / Even if I try to change / That somehow / You'd end up with her anyway (Anyway) / End up with her anyway<br>
Comment : <a href="https://music.amazon.com/albums/B0BY1JP6VM?trackAsin=B0BY15NBW8" target="_blank" class="externalLink" rel="nofollow">https://music.amazon.com/albums/B0BY1JP6VM?trackAsin=B0BY15NBW8</a><br>
Rating : None<br>
LABEL : Island Records<br>
Audio<br>
ID : 1<br>
Format : E-AC-3 JOC<br>
Format/Info : Enhanced AC-3 with Joint Object Coding<br>
Commercial name : Dolby Digital Plus with Dolby Atmos<br>
Codec ID : ec-3<br>
Duration : 2 min 48 s<br>
Bit rate mode : Constant<br>
Bit rate : 768 kb/s<br>
Channel(s) : 6 channels<br>
Channel layout : L R C LFE Ls Rs<br>
Sampling rate : 48.0 kHz<br>
Frame rate : 31.250 FPS (1536 SPF)<br>
Compression mode : Lossy<br>
Stream size : 15.4 MiB (99%)<br>
Service kind : Complete Main<br>
Encoded date : 2023-11-13 08:47:27 UTC<br>
Tagged date : 2023-11-13 08:47:27 UTC<br>
Complexity index : 16<br>
Number of dynamic objects : 15<br>
Bed channel count : 1 channel<br>
Bed channel configuration : LFE<br>
General<br>
Complete name : C:\Users\bradl\Desktop\Sabrina Carpenter - emails i can't send fwd; (2023) [Dolby Atmos] [16B-48kHz]\15. Feather.m4a<br>
Format : MPEG-4<br>
Format profile : Base Media / Version 2<br>
Codec ID : mp42 (mp42/dby1)<br>
File size : 17.2 MiB<br>
Duration : 3 min 5 s<br>
Overall bit rate mode : Constant<br>
Overall bit rate : 776 kb/s<br>
Album : emails i can’t send fwd: [dolby atmos]<br>
Album/Performer : Sabrina Carpenter<br>
Part/Position : 1<br>
Part/Total : 1<br>
Track name : Feather<br>
Track name/Position : 15<br>
Track name/Total : 17<br>
Performer : Sabrina Carpenter<br>
Composer : Amy Allen, John Ryan &amp; Sabrina Carpenter<br>
Genre : Pop/General<br>
ContentType : Music<br>
Recorded date : 2023-03-17 04:00:00 UTC<br>
Encoded date : 2023-11-13 08:47:47 UTC<br>
Tagged date : 2023-11-13 08:47:47 UTC<br>
ISRC : USUM72301876<br>
Copyright : ℗© 2023 Island Records, a division of UMG Recordings, Inc.<br>
Cover : Yes<br>
Lyrics : Do-do-do-do, do-do-do-do / Oh, not another take / Oh, it's like that / I'm your dream come true when it's on a platter for you / Then you pulled back / When I try to make plans more than two hours in advance, hmm / I slam the door, I hit ignore / I say, "no, no, no, no, no more" / I got you blocked after this, an afterthought / I finally cut you off / I feel so much lighter like a feather with you off my mind, ah / Floatin' through the memories, like whatever you're a waste of time, ah / Your signals are mixed, you act like a bitch / You fit every stereotype, "send a pic" / I feel so much lighter like a feather with you out my life / With you out my life do-do-do-do, do-do-do-do / Like a feather, like a feather, like a feather / It feels so good not carin' where you are tonight / And it feels so good not pretendin' to like the wine you like / I slam the door (Slam the door), I hit ignore (Hit ignore) / I say, "no, no, no, no, no more" / I got you blocked, excited to never talk / I am so sorry for your loss (Haha) / I feel so much lighter like a feather with you off my mind, ah / Floatin' through the memories, like whatever / You're a waste of time, ah / Your signals are mixed, you act like a bitch / You fit every stereotype, "send a pic" / I feel so much lighter like a feather with you out my life / With you out my life do-do-do-do, do-do-do-do (Hmm) / Like a feather, like a feather, like a feather / You wanted me, I'm gone / You miss me, no doubt / Where I am, in love where I'm at / You wanted me, I'm gone / You miss me, no doubt / Where I am, in love where I'm at / You wanted me, I'm gone (I feel so much lighter like a feather with you off my mind) (Mind) / Miss me, no doubt / Where I am, in love where I'm at (Like a feather, like a feather, like a feather) / You wanted me, I'm gone (I feel so much lighter like a feather with you off my mind) / You miss me, no doubt where I am, in love where I'm at / (Like a feather, like a feather, like a feather, yeah)<br>
Comment : <a href="https://music.amazon.com/albums/B0BY1JP6VM?trackAsin=B0BY1FT9HZ" target="_blank" class="externalLink" rel="nofollow">https://music.amazon.com/albums/B0BY1JP6VM?trackAsin=B0BY1FT9HZ</a><br>
Rating : Explicit<br>
LABEL : Island Records<br>
Audio<br>
ID : 1<br>
Format : E-AC-3 JOC<br>
Format/Info : Enhanced AC-3 with Joint Object Coding<br>
Commercial name : Dolby Digital Plus with Dolby Atmos<br>
Codec ID : ec-3<br>
Duration : 3 min 5 s<br>
Bit rate mode : Constant<br>
Bit rate : 768 kb/s<br>
Channel(s) : 6 channels<br>
Channel layout : L R C LFE Ls Rs<br>
Sampling rate : 48.0 kHz<br>
Frame rate : 31.250 FPS (1536 SPF)<br>
Compression mode : Lossy<br>
Stream size : 17.0 MiB (99%)<br>
Service kind : Complete Main<br>
Encoded date : 2023-11-13 08:47:47 UTC<br>
Tagged date : 2023-11-13 08:47:47 UTC<br>
Complexity index : 16<br>
Number of dynamic objects : 15<br>
Bed channel count : 1 channel<br>
Bed channel configuration : LFE<br>
General<br>
Complete name : C:\Users\bradl\Desktop\Sabrina Carpenter - emails i can't send fwd; (2023) [Dolby Atmos] [16B-48kHz]\16. Lonesome.m4a<br>
Format : MPEG-4<br>
Format profile : Base Media / Version 2<br>
Codec ID : mp42 (mp42/dby1)<br>
File size : 17.4 MiB<br>
Duration : 3 min 7 s<br>
Overall bit rate mode : Constant<br>
Overall bit rate : 776 kb/s<br>
Album : emails i can’t send fwd: [dolby atmos]<br>
Album/Performer : Sabrina Carpenter<br>
Part/Position : 1<br>
Part/Total : 1<br>
Track name : Lonesome<br>
Track name/Position : 16<br>
Track name/Total : 17<br>
Performer : Sabrina Carpenter<br>
Composer : Leroy Clampitt, Sabrina Carpenter &amp; Skyler Stonestreet<br>
Genre : Pop/General<br>
ContentType : Music<br>
Recorded date : 2023-03-17 04:00:00 UTC<br>
Encoded date : 2023-11-13 08:48:14 UTC<br>
Tagged date : 2023-11-13 08:48:14 UTC<br>
ISRC : USUM72301860<br>
Copyright : ℗© 2023 Island Records, a division of UMG Recordings, Inc.<br>
Cover : Yes<br>
Comment : <a href="https://music.amazon.com/albums/B0BY1JP6VM?trackAsin=B0BY188W9X" target="_blank" class="externalLink" rel="nofollow">https://music.amazon.com/albums/B0BY1JP6VM?trackAsin=B0BY188W9X</a><br>
Rating : Explicit<br>
LABEL : Island Records<br>
Audio<br>
ID : 1<br>
Format : E-AC-3 JOC<br>
Format/Info : Enhanced AC-3 with Joint Object Coding<br>
Commercial name : Dolby Digital Plus with Dolby Atmos<br>
Codec ID : ec-3<br>
Duration : 3 min 7 s<br>
Bit rate mode : Constant<br>
Bit rate : 768 kb/s<br>
Channel(s) : 6 channels<br>
Channel layout : L R C LFE Ls Rs<br>
Sampling rate : 48.0 kHz<br>
Frame rate : 31.250 FPS (1536 SPF)<br>
Compression mode : Lossy<br>
Stream size : 17.2 MiB (99%)<br>
Service kind : Complete Main<br>
Encoded date : 2023-11-13 08:48:14 UTC<br>
Tagged date : 2023-11-13 08:48:14 UTC<br>
Complexity index : 16<br>
Number of dynamic objects : 15<br>
Bed channel count : 1 channel<br>
Bed channel configuration : LFE<br>
General<br>
Complete name : C:\Users\bradl\Desktop\Sabrina Carpenter - emails i can't send fwd; (2023) [Dolby Atmos] [16B-48kHz]\17. things i wish you said.m4a<br>
Format : MPEG-4<br>
Format profile : Base Media / Version 2<br>
Codec ID : mp42 (mp42/dby1)<br>
File size : 15.1 MiB<br>
Duration : 2 min 42 s<br>
Overall bit rate mode : Constant<br>
Overall bit rate : 777 kb/s<br>
Album : emails i can’t send fwd: [dolby atmos]<br>
Album/Performer : Sabrina Carpenter<br>
Part/Position : 1<br>
Part/Total : 1<br>
Track name : things i wish you said<br>
Track name/Position : 17<br>
Track name/Total : 17<br>
Performer : Sabrina Carpenter<br>
Composer : Leroy Clampitt, Sabrina Carpenter &amp; Steph Jones<br>
Genre : Pop/General<br>
ContentType : Music<br>
Recorded date : 2023-03-17 04:00:00 UTC<br>
Encoded date : 2023-11-13 08:48:39 UTC<br>
Tagged date : 2023-11-13 08:48:39 UTC<br>
ISRC : USUM72301878<br>
Copyright : ℗© 2023 Island Records, a division of UMG Recordings, Inc.<br>
Cover : Yes<br>
Comment : <a href="https://music.amazon.com/albums/B0BY1JP6VM?trackAsin=B0BY12438T" target="_blank" class="externalLink" rel="nofollow">https://music.amazon.com/albums/B0BY1JP6VM?trackAsin=B0BY12438T</a><br>
Rating : Explicit<br>
LABEL : Island Records<br>
Audio<br>
ID : 1<br>
Format : E-AC-3 JOC<br>
Format/Info : Enhanced AC-3 with Joint Object Coding<br>
Commercial name : Dolby Digital Plus with Dolby Atmos<br>
Codec ID : ec-3<br>
Duration : 2 min 42 s<br>
Bit rate mode : Constant<br>
Bit rate : 768 kb/s<br>
Channel(s) : 6 channels<br>
Channel layout : L R C LFE Ls Rs<br>
Sampling rate : 48.0 kHz<br>
Frame rate : 31.250 FPS (1536 SPF)<br>
Compression mode : Lossy<br>
Stream size : 14.9 MiB (99%)<br>
Service kind : Complete Main<br>
Encoded date : 2023-11-13 08:48:39 UTC<br>
Tagged date : 2023-11-13 08:48:39 UTC<br>
Complexity index : 16<br>
Number of dynamic objects : 15<br>
Bed channel count : 1 channel<br>
Bed channel configuration : LFE<br>
General<br>
Complete name : C:\Users\bradl\Desktop\Sabrina Carpenter - emails i can't send fwd; (2023) [Dolby Atmos] [16B-48kHz]\cover.jpg<br>
Format : JPEG<br>
File size : 154 KiB<br>
Image<br>
Format : JPEG<br>
Width : 1 200 pixels<br>
Height : 1 200 pixels<br>
Color space : YUV<br>
Chroma subsampling : 4:2:0<br>
Bit depth : 8 bits<br>
Compression mode : Lossy<br>
Stream size : 154 KiB (100%)</div>
</div><br>
<div class="bbCodeBlock bbCodeVfcHH HiddenContent">
<div class="attribution type">Hidden Content:</div>
<blockquote>You must either reply or click 'Like' to see the hidden information contained here.</blockquote>
</div><i>enjoy! ♥</i><br>
</span></span>​</div>
<div class="messageTextEndMarker">&nbsp;</div>
</blockquote>
</article>]]></description>
                <author><![CDATA[bspengeman]]></author>
                </item>

                
                <item>
                <title><![CDATA[【Albums (lossless)】PACK - Psychedelic Furs - B-Sides &amp; Lost Grooves [Ultimate Collection] {FLAC 16/24bit]]]></title>
                <link><![CDATA[https://sharemania.us/threads/psychedelic-furs-b-sides-lost-grooves-ultimate-collection-flac-16-24bit.232145/]]></link>
                <description><![CDATA[<article>
<blockquote class="messageText SelectQuoteContainer ugc baseHtml">
<img src="https://s1.ticketm.net/dam/a/4e6/633620ff-6fd5-4d7d-b9f1-483a942894e6_TABLET_LANDSCAPE_LARGE_16_9.jpg" class="bbCodeImage LbImage" alt="[​IMG]" data-url="https://s1.ticketm.net/dam/a/4e6/633620ff-6fd5-4d7d-b9f1-483a942894e6_TABLET_LANDSCAPE_LARGE_16_9.jpg" style=""> <br>
<br>
Decode at <a href="https://www.base64decode.org/" target="_blank" class="externalLink" rel="nofollow">https://www.base64decode.org/</a><br>
<br>
<div class="bbCodeBlock bbCodeVfcHH HiddenContent">
<div class="attribution type">Hidden Content:</div>
<blockquote>You must reply before you can see the hidden data contained here.</blockquote>
</div>This is the ultimate "B Sides &amp; Lost Grooves" collection. It includes pretty much every B-side, bonus track &amp; remix that the Furs have released at some point or another on cd, vinyl or digital. ~60 little (and not so little) gems spanning their first 20 years in the music scene, from 1980 to 2001. If I'm missing something, let me know and I'll hunt it down.<br>
<br>
Most are in 16bit 44100Hz stereo FLAC (either my own cd rips or downloaded over the years), but a couple are 24bit vinyl rips. Each track is rar-ed up to avoid copyright blocking by Mega, but they're all separate so you can download just what you like.<br>
<br>
<b><i>4 Asterisks<br>
Aeroplane<br>
Aeroplane (Dance Mix)<br>
Alice's House (Alternate Version)<br>
Alive (For Once In My Lifetime)<br>
All Of The Law (Live)<br>
All Of This And Nothing (Demo)<br>
All That Money Wants<br>
Angels Don't Cry (7" Remix)<br>
Angels Don't Cry (Single Remix Edit)<br>
Another Edge<br>
Another Edge (Full Length Mix)<br>
Badman<br>
Birdland<br>
Danger (Remix)<br>
Dash<br>
Don't Be A Girl (12" Mix)<br>
Don't Be A Girl (Dancehall On Fire Remix)<br>
Dumb Waiters (Radio Edit)<br>
Flowers (Demo Version)<br>
Get A Room (Acoustic Remix)<br>
Get A Room (Live)<br>
Goodbye (Dance Mix)<br>
Heartbeat (12" Mix)<br>
Heartbeat (7" Remix)<br>
Heartbeat (Live)<br>
Heartbeat (New York Remix)<br>
Heartbreak Beat (Dub)<br>
Heartbreak Beat (New York Mix)<br>
Heartbreak Beat (Single Mix V1)<br>
Heartbreak Beat (Single Mix V2)<br>
Heaven (12" Version)<br>
Here Come Cowboys (12" Remix Edit)<br>
House (Extended Version)<br>
House (Flashback Mix)<br>
I Don't Want To Be Your Shadow<br>
Love My Way (Instrumental)<br>
Love My Way (US Remix)<br>
Mack the Knife<br>
Make It Mine<br>
Mary Go Round<br>
Mr. Jones (Single Version)<br>
New Dream<br>
No Easy Street (Live)<br>
President Gas (Live)<br>
Pretty In Pink (1986 Film Mix)<br>
Pretty In Pink (Berlin Mix)<br>
Pretty In Pink (Dub)<br>
Pretty In Pink (Album Instrumental)<br>
Shock (Radio Edit)<br>
Shock (Shep Pettibone Instrumental)<br>
Shock (Shep Pettibone Mix)<br>
Sister Europe (Instrumental)<br>
Sister Europe (Radio Edit)<br>
So Run Down (Early Version)<br>
Soap Commercial<br>
Soap Commercial (Live)<br>
Sometimes<br>
Torch (Electric Mix)<br>
Until She Comes (Remix)<br>
Watchtower</i></b>
<div class="messageTextEndMarker">&nbsp;</div>
</blockquote>
</article>]]></description>
                <author><![CDATA[KingOfHell1661]]></author>
                </item>

                
                <item>
                <title><![CDATA[【HD Live Performances】WEB-RiP - Kylie Minogue - Showgirl [1080P UPSCALE] (MKV)]]></title>
                <link><![CDATA[https://sharemania.us/threads/kylie-minogue-showgirl-1080p-upscale-mkv.232146/]]></link>
                <description><![CDATA[<article>
<blockquote class="messageText SelectQuoteContainer ugc baseHtml">
<div style="text-align: center"><b><span style="font-family: 'Times New Roman'"><span style="font-size: 26px">Showgirl: The Greatest Hits Tour 2005<b> (1080P UPSCALE)</b><br>
<br>
<b><img src="https://images.coveralia.com/audio/k/Kylie_Minogue-Showgirl_(DVD)-Caratula.jpg" class="bbCodeImage LbImage" alt="[​IMG]" data-url="https://images.coveralia.com/audio/k/Kylie_Minogue-Showgirl_(DVD)-Caratula.jpg" style=""> </b><br>
<br>
<b><img src="https://3.bp.blogspot.com/-ELge2uhQvyc/W_cwntDRSQI/AAAAAAABCZY/XrmhGVmQM6Q4cUkFIlFrNHLAyADPhNHuACEwYBhgL/s1600/vlcsnap-2018-11-22-20h20m54s156.png" class="bbCodeImage LbImage" alt="[​IMG]" data-url="https://3.bp.blogspot.com/-ELge2uhQvyc/W_cwntDRSQI/AAAAAAABCZY/XrmhGVmQM6Q4cUkFIlFrNHLAyADPhNHuACEwYBhgL/s1600/vlcsnap-2018-11-22-20h20m54s156.png" style=""> </b><br>
<b><img src="https://1.bp.blogspot.com/-Q0SV9Ucq494/W_cxLgCOLuI/AAAAAAABCZs/SBL7hz2RQaQxT0z5Z6TG76uR53ZtpAkfgCEwYBhgL/s1600/vlcsnap-2018-11-22-20h25m12s119.png" class="bbCodeImage LbImage" alt="[​IMG]" data-url="https://1.bp.blogspot.com/-Q0SV9Ucq494/W_cxLgCOLuI/AAAAAAABCZs/SBL7hz2RQaQxT0z5Z6TG76uR53ZtpAkfgCEwYBhgL/s1600/vlcsnap-2018-11-22-20h25m12s119.png" style=""> </b><br>
<b><img src="https://2.bp.blogspot.com/-RqIFDV9tlwc/W_cxez_cpgI/AAAAAAABCZ8/sRB0reEFSSEQ1A_74yWBmMVze2STbzmpACEwYBhgL/s1600/vlcsnap-2018-11-22-20h28m05s164.png" class="bbCodeImage LbImage" alt="[​IMG]" data-url="https://2.bp.blogspot.com/-RqIFDV9tlwc/W_cxez_cpgI/AAAAAAABCZ8/sRB0reEFSSEQ1A_74yWBmMVze2STbzmpACEwYBhgL/s1600/vlcsnap-2018-11-22-20h28m05s164.png" style=""> </b><br>
<br>
<b><b>Kylie: Showgirl</b></b><br>
<b><b>
<div class="bbCodeBlock bbCodeVfcHH HiddenContent">
<div class="attribution type">Hidden Content:</div>
<blockquote>You must reply before you can see the hidden data contained here.</blockquote>
</div></b></b><br>
<br>
<b><b>Showgirl Tour: Behind the Feathers &amp; Extras </b></b><br>
<b><b>
<div class="bbCodeBlock bbCodeVfcHH HiddenContent">
<div class="attribution type">Hidden Content:</div>
<blockquote>You must reply before you can see the hidden data contained here.</blockquote>
</div></b></b></span></span></b>​</div>
<div class="messageTextEndMarker">&nbsp;</div>
</blockquote>
</article>]]></description>
                <author><![CDATA[saeedbarbie]]></author>
                </item>

                </channel></rss>